# xmcd
#
# Track frame offsets:
#	150
#	12426
#	25622
#	39768
#	53478
#	64848
#	78331
#	91172
#	106222
#	118954
#	131626
#	145364
#	155522
#	166598
#	179244
#	191021
#	202567
#	215863
#	228127
#	239892
#	252027
#	264944
#	277480
#
# Disc length: 3880 seconds
#
# Revision: 0
# Processed by: cddbd v1.5.2PL0 Copyright (c) Steve Scherf et al.
# Submitted via: dBpowerAMP V4.0
#
DISCID=420f2617
DTITLE=Julia Lee - Kansas City Calling
DYEAR=2005
DGENRE=Blues
TTITLE0=King Size Papa
TTITLE1=Snatch And Grab It
TTITLE2=Ain't It A Crime
TTITLE3=I Was Wrong
TTITLE4=Take It Or Leave It
TTITLE5=I Didn't Like It The First Time
TTITLE6=Tell Me Daddy
TTITLE7=Cold Hearted Daddy
TTITLE8=Gotta Gimme Whatcha Got
TTITLE9=Young Girls' Blues
TTITLE10=Tonight's The Night
TTITLE11=My Man Stands Out
TTITLE12=Don't Save It Too Late
TTITLE13=You Ain't Got It Anymore
TTITLE14=After Hours Waltz
TTITLE15=Do You Want It?
TTITLE16=Oh Chuck It In a Bucket
TTITLE17=When A Woman Loves A Man
TTITLE18=On My Way Out
TTITLE19=Wise Guys (You're A Wise Guy)
TTITLE20=The Glory Of Love
TTITLE21=That's What I Like
TTITLE22=When You're Smiling
EXTD=
EXTT0=
EXTT1=
EXTT2=
EXTT3=
EXTT4=
EXTT5=
EXTT6=
EXTT7=
EXTT8=
EXTT9=
EXTT10=
EXTT11=
EXTT12=
EXTT13=
EXTT14=
EXTT15=
EXTT16=
EXTT17=
EXTT18=
EXTT19=
EXTT20=
EXTT21=
EXTT22=
PLAYORDER=
